<svg width="25" height="25" viewBox="0 0 25 25" fill="none" xmlns="http://www.w3.org/2000/svg">
<path d="M7.29175 15.625H9.37508C9.37508 16.75 10.8022 17.7083 12.5001 17.7083C14.198 17.7083 15.6251 16.75 15.6251 15.625C15.6251 14.4792 14.5417 14.0625 12.2501 13.5104C10.0417 12.9583 7.29175 12.2708 7.29175 9.375C7.29175 7.51042 8.823 5.92708 10.9376 5.39583V3.125H14.0626V5.39583C16.1772 5.92708 17.7084 7.51042 17.7084 9.375H15.6251C15.6251 8.25 14.198 7.29167 12.5001 7.29167C10.8022 7.29167 9.37508 8.25 9.37508 9.375C9.37508 10.5208 10.4584 10.9375 12.7501 11.4896C14.9584 12.0417 17.7084 12.7292 17.7084 15.625C17.7084 17.4896 16.1772 19.0729 14.0626 19.6042V21.875H10.9376V19.6042C8.823 19.0729 7.29175 17.4896 7.29175 15.625Z" fill="#656464"/>
</svg>
