<svg width="18" height="18" viewBox="0 0 18 18" fill="none" xmlns="http://www.w3.org/2000/svg">
<g clip-path="url(#clip0_46_136)">
<path d="M16.4039 0.679199H1.59748C1.09033 0.679199 0.679199 1.09033 0.679199 1.59748V16.4039C0.679199 16.911 1.09033 17.3222 1.59748 17.3222H16.4039C16.911 17.3222 17.3222 16.911 17.3222 16.4039V1.59748C17.3222 1.09033 16.911 0.679199 16.4039 0.679199Z" fill="#3D5A98"/>
<path d="M12.1612 17.3207V10.8759H14.324L14.6475 8.36432H12.1612V6.76119C12.1612 6.03416 12.3637 5.53775 13.4058 5.53775H14.7361V3.28775C14.0919 3.22074 13.4445 3.18882 12.7968 3.19213C10.8815 3.19213 9.56247 4.35932 9.56247 6.51228V8.36432H7.39966V10.8759H9.56247V17.3207H12.1612Z" fill="white"/>
</g>
<defs>
<clipPath id="clip0_46_136">
<rect width="18" height="18" fill="white"/>
</clipPath>
</defs>
</svg>
