<svg width="26" height="25" viewBox="0 0 26 25" fill="none" xmlns="http://www.w3.org/2000/svg">
<g clip-path="url(#clip0_103_629)">
<path d="M19.3173 18.0717C21.793 17.1461 22.2985 12.6831 20.4464 8.10322C18.5943 3.52337 15.0861 0.561005 12.6104 1.4866C10.1348 2.41219 9.62932 6.87524 11.4814 11.4551C13.3334 16.0349 16.8417 18.9973 19.3173 18.0717Z" stroke="#3F3E3E" stroke-linecap="round" stroke-linejoin="round"/>
<path d="M18.0557 18.2245L3.46975 17.4708C2.66563 17.4705 1.89454 17.1633 1.32594 16.6165C0.757348 16.0698 0.437787 15.3284 0.4375 14.5552C0.4375 13.751 0.855667 12.9463 1.37837 12.3937L11.7822 1.98801" stroke="#3F3E3E" stroke-linecap="round" stroke-linejoin="round"/>
<path d="M8.54088 17.7219C7.49546 17.6214 6.08388 16.063 5.19501 13.8516C4.30667 11.6901 4.25413 9.67917 4.88084 8.875M8.80196 17.8229C8.80196 18.8781 7.91363 19.6823 6.76313 19.6823C5.61263 19.6823 4.7243 18.8781 4.7243 17.8729V17.6214M19.1532 8.875L13.9776 13.1979C15.4943 15.7615 17.428 17.2698 18.7876 16.7672C20.4603 16.1135 20.6173 12.5948 19.1532 8.875ZM18.2649 6.91458L13.0367 11.2875C12.9762 11.1566 12.9237 11.0223 12.8796 10.8854C11.3115 7.0151 11.4686 3.39583 13.1413 2.74219C14.6054 2.23958 16.6962 4.05 18.2649 6.91458Z" stroke="#3F3E3E" stroke-linecap="round" stroke-linejoin="round"/>
</g>
<defs>
<clipPath id="clip0_103_629">
<rect width="26" height="25" fill="white"/>
</clipPath>
</defs>
</svg>
