<svg width="181" height="150" viewBox="0 0 181 150" fill="none" xmlns="http://www.w3.org/2000/svg">
<path d="M154.121 67.5009H7.86895C5.78198 67.5009 3.78048 68.291 2.30476 69.6974C0.82905 71.1037 0 73.0111 0 75C0 76.9889 0.82905 78.8963 2.30476 80.3026C3.78048 81.709 5.78198 82.4991 7.86895 82.4991H154.121L96.7252 137.182C95.2476 138.59 94.4175 140.5 94.4175 142.491C94.4175 144.483 95.2476 146.393 96.7252 147.801C98.2028 149.209 100.207 150 102.296 150C104.386 150 106.39 149.209 107.868 147.801L178.688 80.3093C179.421 79.6127 180.002 78.7852 180.399 77.8741C180.796 76.9631 181 75.9864 181 75C181 74.0136 180.796 73.0369 180.399 72.1259C180.002 71.2148 179.421 70.3873 178.688 69.6907L107.868 2.19919C106.39 0.791073 104.386 0 102.296 0C100.207 0 98.2028 0.791073 96.7252 2.19919C95.2476 3.60732 94.4175 5.51714 94.4175 7.50853C94.4175 9.49991 95.2476 11.4097 96.7252 12.8179L154.121 67.5009Z" fill="white"/>
</svg>
