<svg width="7" height="35" viewBox="0 0 7 35" fill="none" xmlns="http://www.w3.org/2000/svg">
<path d="M1.88988e-06 3.33333C1.88988e-06 2.67406 0.205273 2.0296 0.589858 1.48143C0.974443 0.933271 1.52107 0.506028 2.16061 0.253736C2.80015 0.00144426 3.50388 -0.0645668 4.18282 0.0640505C4.86175 0.192668 5.48539 0.510137 5.97487 0.976312C6.46436 1.44249 6.7977 2.03643 6.93275 2.68303C7.0678 3.32964 6.99848 3.99986 6.73358 4.60895C6.46867 5.21803 6.02007 5.73863 5.4445 6.1049C4.86892 6.47117 4.19223 6.66667 3.5 6.66667C2.57174 6.66667 1.68151 6.31548 1.02513 5.69036C0.368751 5.06524 1.88988e-06 4.21739 1.88988e-06 3.33333ZM3.5 14.1667C2.80777 14.1667 2.13108 14.3622 1.55551 14.7284C0.979934 15.0947 0.53133 15.6153 0.266423 16.2244C0.00151649 16.8335 -0.0677951 17.5037 0.0672531 18.1503C0.202301 18.7969 0.535645 19.3908 1.02513 19.857C1.51461 20.3232 2.13825 20.6407 2.81718 20.7693C3.49612 20.8979 4.19985 20.8319 4.83939 20.5796C5.47893 20.3273 6.02556 19.9001 6.41014 19.3519C6.79473 18.8037 7 18.1593 7 17.5C7 16.6159 6.63125 15.7681 5.97487 15.143C5.3185 14.5179 4.42826 14.1667 3.5 14.1667ZM3.5 28.3333C2.80777 28.3333 2.13108 28.5288 1.55551 28.8951C0.979934 29.2614 0.53133 29.782 0.266423 30.3911C0.00151649 31.0001 -0.0677951 31.6704 0.0672531 32.317C0.202301 32.9636 0.535645 33.5575 1.02513 34.0237C1.51461 34.4899 2.13825 34.8073 2.81718 34.9359C3.49612 35.0646 4.19985 34.9986 4.83939 34.7463C5.47893 34.494 6.02556 34.0667 6.41014 33.5186C6.79473 32.9704 7 32.3259 7 31.6667C7 30.7826 6.63125 29.9348 5.97487 29.3096C5.3185 28.6845 4.42826 28.3333 3.5 28.3333Z" fill="#474747"/>
</svg>
