<svg width="22" height="13" viewBox="0 0 22 13" fill="none" xmlns="http://www.w3.org/2000/svg">
<path d="M15.125 9.70166C16.2708 9.70166 17.2448 9.34795 18.0469 8.64054C18.849 7.93313 19.25 7.07413 19.25 6.06354C19.25 5.05295 18.849 4.19395 18.0469 3.48653C17.2448 2.77912 16.2708 2.42542 15.125 2.42542C13.9792 2.42542 13.0052 2.77912 12.2031 3.48653C11.401 4.19395 11 5.05295 11 6.06354C11 7.07413 11.401 7.93313 12.2031 8.64054C13.0052 9.34795 13.9792 9.70166 15.125 9.70166ZM15.125 12.1271C13.475 12.1271 12.0198 11.6723 10.7594 10.7628C9.49896 9.85325 8.70833 8.69107 8.3875 7.27624H2.75V4.85083H8.3875C8.50208 4.40617 8.657 3.97687 8.85225 3.56293C9.0475 3.149 9.30508 2.76982 9.625 2.42542H0V0H15.125C17.0271 0 18.6487 0.591397 19.9897 1.77419C21.3308 2.95699 22.0009 4.38677 22 6.06354C21.9991 7.74031 21.3285 9.17049 19.9884 10.3541C18.6482 11.5377 17.0271 12.1287 15.125 12.1271Z" fill="#474646"/>
</svg>
