<svg width="1457" height="908" viewBox="0 0 1457 908" fill="none" xmlns="http://www.w3.org/2000/svg">
<g filter="url(#filter0_d_44_6)">
<g clip-path="url(#clip0_44_6)">
<rect x="4" width="1449" height="900" fill="white"/>
<g filter="url(#filter1_f_44_6)">
<path d="M1764 872C1764 1048.18 1618.04 1191 1438 1191C1257.96 1191 1112 1048.18 1112 872C1112 695.821 1257.96 553 1438 553C1618.04 553 1764 695.821 1764 872Z" fill="url(#paint0_linear_44_6)"/>
</g>
<g filter="url(#filter2_f_44_6)">
<path d="M330 35C330 211.179 184.045 354 4 354C-176.045 354 -322 211.179 -322 35C-322 -141.179 -176.045 -284 4 -284C184.045 -284 330 -141.179 330 35Z" fill="url(#paint1_linear_44_6)"/>
</g>
</g>
<rect x="4.5" y="0.5" width="1448" height="899" stroke="#E3DFDF"/>
</g>
<defs>
<filter id="filter0_d_44_6" x="0" y="0" width="1457" height="908" filterUnits="userSpaceOnUse" color-interpolation-filters="sRGB">
<feFlood flood-opacity="0" result="BackgroundImageFix"/>
<feColorMatrix in="SourceAlpha" type="matrix" values="0 0 0 0 0 0 0 0 0 0 0 0 0 0 0 0 0 0 127 0" result="hardAlpha"/>
<feOffset dy="4"/>
<feGaussianBlur stdDeviation="2"/>
<feComposite in2="hardAlpha" operator="out"/>
<feColorMatrix type="matrix" values="0 0 0 0 0 0 0 0 0 0 0 0 0 0 0 0 0 0 0.25 0"/>
<feBlend mode="normal" in2="BackgroundImageFix" result="effect1_dropShadow_44_6"/>
<feBlend mode="normal" in="SourceGraphic" in2="effect1_dropShadow_44_6" result="shape"/>
</filter>
<filter id="filter1_f_44_6" x="822" y="263" width="1232" height="1218" filterUnits="userSpaceOnUse" color-interpolation-filters="sRGB">
<feFlood flood-opacity="0" result="BackgroundImageFix"/>
<feBlend mode="normal" in="SourceGraphic" in2="BackgroundImageFix" result="shape"/>
<feGaussianBlur stdDeviation="145" result="effect1_foregroundBlur_44_6"/>
</filter>
<filter id="filter2_f_44_6" x="-612" y="-574" width="1232" height="1218" filterUnits="userSpaceOnUse" color-interpolation-filters="sRGB">
<feFlood flood-opacity="0" result="BackgroundImageFix"/>
<feBlend mode="normal" in="SourceGraphic" in2="BackgroundImageFix" result="shape"/>
<feGaussianBlur stdDeviation="145" result="effect1_foregroundBlur_44_6"/>
</filter>
<linearGradient id="paint0_linear_44_6" x1="1382" y1="534.5" x2="1382" y2="1172.5" gradientUnits="userSpaceOnUse">
<stop stop-color="#225BB3" stop-opacity="0.19"/>
<stop offset="0.555" stop-color="#0094FF" stop-opacity="0.32"/>
</linearGradient>
<linearGradient id="paint1_linear_44_6" x1="-52" y1="-302.5" x2="-52" y2="335.5" gradientUnits="userSpaceOnUse">
<stop stop-color="#225BB3" stop-opacity="0.19"/>
<stop offset="0.555" stop-color="#0094FF" stop-opacity="0.32"/>
</linearGradient>
<clipPath id="clip0_44_6">
<rect x="4" width="1449" height="900" fill="white"/>
</clipPath>
</defs>
</svg>
